ply
format ascii 1.0
comment Created by Blender 2.79 (sub 0) - www.blender.org, source file: ''
element vertex 29
property float x
property float y
property float z
property float nx
property float ny
property float nz
property float s
property float t
element face 27
property list uchar uint vertex_indices
end_header
1.194961 -0.505113 -0.808627 0.000000 0.000000 -1.000000 1.398499 0.879798
1.202393 -0.520985 -0.808627 0.000000 0.000000 -1.000000 1.404087 0.891732
1.203405 -0.530112 -0.808627 0.000000 0.000000 -1.000000 1.404847 0.898595
1.188981 -0.498808 -0.808627 0.000000 0.000000 -1.000000 1.394002 0.875057
1.164625 -0.489061 -0.808627 0.000000 0.000000 -1.000000 1.375689 0.867728
1.164625 -0.571164 -0.808627 -0.000000 -0.000000 -1.000000 1.375689 0.929462
1.188981 -0.561417 -0.808627 0.000000 -0.000000 -1.000000 1.394002 0.922133
1.194961 -0.555112 -0.808627 0.000000 -0.000000 -1.000000 1.398499 0.917392
1.202393 -0.539240 -0.808627 0.000000 -0.000000 -1.000000 1.404087 0.905458
1.199505 -0.512579 -0.808627 0.000000 0.000000 -1.000000 1.401915 0.885411
1.181785 -0.493884 -0.808627 0.000000 0.000000 -1.000000 1.388591 0.871355
1.173593 -0.490562 -0.808627 0.000000 0.000000 -1.000000 1.382432 0.868857
1.121429 -0.525472 -0.808627 0.000000 0.000000 -1.000000 1.343209 0.895106
1.155383 -0.489570 -0.808627 0.000000 0.000000 -1.000000 1.368740 0.868111
1.121429 -0.534752 -0.808627 0.000000 -0.000000 -1.000000 1.343209 0.902084
1.139055 -0.496160 -0.808627 0.000000 0.000000 -1.000000 1.356462 0.873066
1.146776 -0.492009 -0.808627 0.000000 0.000000 -1.000000 1.362268 0.869945
1.132439 -0.501802 -0.808627 0.000000 0.000000 -1.000000 1.351488 0.877308
1.127149 -0.508714 -0.808627 0.000000 0.000000 -1.000000 1.347511 0.882506
1.123406 -0.516678 -0.808627 0.000000 0.000000 -1.000000 1.344696 0.888493
1.127149 -0.551510 -0.808627 0.000000 0.000000 -1.000000 1.347511 0.914684
1.123406 -0.543547 -0.808627 0.000000 0.000000 -1.000000 1.344696 0.908696
1.132439 -0.558423 -0.808627 0.000000 0.000000 -1.000000 1.351488 0.919882
1.155383 -0.570655 -0.808627 0.000000 0.000000 -1.000000 1.368740 0.929079
1.139055 -0.564065 -0.808627 0.000000 0.000000 -1.000000 1.356462 0.924124
1.146776 -0.568216 -0.808627 0.000000 0.000000 -1.000000 1.362268 0.927245
1.181785 -0.566340 -0.808627 0.000000 0.000000 -1.000000 1.388591 0.925835
1.173593 -0.569663 -0.808627 0.000000 0.000000 -1.000000 1.382432 0.928333
1.199505 -0.547646 -0.808627 0.000000 0.000000 -1.000000 1.401915 0.911779
3 0 1 2
3 3 0 2
3 4 3 2
3 5 4 2
3 6 5 2
3 7 6 2
3 8 7 2
3 0 9 1
3 4 10 3
3 4 11 10
3 12 13 4
3 14 12 4
3 5 14 4
3 15 16 13
3 17 15 13
3 12 17 13
3 12 18 17
3 12 19 18
3 20 21 14
3 22 20 14
3 23 22 14
3 5 23 14
3 23 24 22
3 23 25 24
3 26 27 5
3 6 26 5
3 8 28 7
