ply
format ascii 1.0
comment Created by Blender 2.79 (sub 0) - www.blender.org, source file: ''
element vertex 24
property float x
property float y
property float z
property float nx
property float ny
property float nz
property uchar red
property uchar green
property uchar blue
element face 6
property list uchar uint vertex_indices
end_header
1.000000 1.000000 -1.000000 0.000000 0.000000 -1.000000 253 2 52
1.000000 -1.000000 -1.000000 0.000000 0.000000 -1.000000 255 0 49
-1.000000 -1.000000 -1.000000 0.000000 0.000000 -1.000000 255 0 49
-1.000000 1.000000 -1.000000 0.000000 0.000000 -1.000000 254 0 50
1.000000 0.999999 1.000000 0.000000 -0.000000 1.000000 72 255 90
-1.000000 1.000000 1.000000 0.000000 -0.000000 1.000000 72 255 90
-1.000000 -1.000000 1.000000 0.000000 -0.000000 1.000000 72 255 90
0.999999 -1.000001 1.000000 0.000000 -0.000000 1.000000 103 227 92
1.000000 1.000000 -1.000000 1.000000 -0.000000 0.000000 96 0 227
1.000000 0.999999 1.000000 1.000000 -0.000000 0.000000 84 0 237
0.999999 -1.000001 1.000000 1.000000 -0.000000 0.000000 69 0 255
1.000000 -1.000000 -1.000000 1.000000 -0.000000 0.000000 70 0 254
1.000000 -1.000000 -1.000000 -0.000000 -1.000000 -0.000000 70 0 254
0.999999 -1.000001 1.000000 -0.000000 -1.000000 -0.000000 69 0 255
-1.000000 -1.000000 1.000000 -0.000000 -1.000000 -0.000000 69 0 255
-1.000000 -1.000000 -1.000000 -0.000000 -1.000000 -0.000000 69 0 255
-1.000000 -1.000000 -1.000000 -1.000000 0.000000 -0.000000 255 0 49
-1.000000 -1.000000 1.000000 -1.000000 0.000000 -0.000000 255 0 49
-1.000000 1.000000 1.000000 -1.000000 0.000000 -0.000000 197 45 129
-1.000000 1.000000 -1.000000 -1.000000 0.000000 -0.000000 124 102 231
1.000000 0.999999 1.000000 0.000000 1.000000 0.000000 255 0 49
1.000000 1.000000 -1.000000 0.000000 1.000000 0.000000 255 0 49
-1.000000 1.000000 -1.000000 0.000000 1.000000 0.000000 255 0 49
-1.000000 1.000000 1.000000 0.000000 1.000000 0.000000 244 15 53
4 0 1 2 3
4 4 5 6 7
4 8 9 10 11
4 12 13 14 15
4 16 17 18 19
4 20 21 22 23
